<?xml version="1.0" standalone="no"?>
<!DOCTYPE svg PUBLIC "-//W3C//DTD SVG 20010904//EN"
 "http://www.w3.org/TR/2001/REC-SVG-20010904/DTD/svg10.dtd">
<svg version="1.0" xmlns="http://www.w3.org/2000/svg"
 width="122.000000pt" height="122.000000pt" viewBox="0 0 122.000000 122.000000"
 preserveAspectRatio="xMidYMid meet">

<g transform="translate(0.000000,122.000000) scale(0.100000,-0.100000)"
fill="#000000" stroke="none">
<path d="M518 1210 c-177 -32 -322 -127 -419 -274 -124 -188 -124 -464 0 -652
46 -70 127 -150 196 -193 137 -86 342 -109 501 -58 134 44 258 141 333 262
110 175 113 429 8 615 -40 72 -137 173 -207 215 -115 70 -293 107 -412 85z
m210 -46 c217 -44 391 -220 437 -439 27 -130 11 -248 -51 -374 -72 -147 -222
-261 -389 -296 -130 -27 -248 -11 -374 51 -181 89 -311 300 -311 504 0 253
187 490 435 551 89 22 156 23 253 3z"/>
<path d="M571 948 c-155 -23 -265 -155 -265 -318 1 -53 7 -88 20 -120 21 -46
19 -65 -21 -190 -5 -16 2 -15 80 6 81 21 86 22 117 6 24 -12 58 -17 123 -17
105 0 162 22 228 88 63 63 92 137 92 232 0 68 -5 88 -30 138 -65 130 -196 196
-344 175z m176 -75 c212 -99 195 -423 -26 -498 -62 -21 -147 -19 -200 5 -36
17 -50 18 -80 10 -67 -18 -71 -16 -56 34 12 41 12 49 -12 107 -20 51 -24 74
-20 119 11 127 104 230 224 249 65 10 108 4 170 -26z"/>
<path d="M481 754 c-25 -32 -26 -55 -5 -100 60 -126 232 -216 295 -153 28 28
21 51 -25 72 -38 18 -39 18 -53 -2 -8 -12 -22 -21 -32 -21 -21 0 -73 38 -102
74 -19 25 -20 28 -5 50 14 22 14 28 -1 65 -19 48 -42 53 -72 15z"/>
</g>
</svg>
